<?xml version="1.0" encoding="UTF-8"?>
<svg width="14px" height="15px" viewBox="0 0 14 15" version="1.1" xmlns="http://www.w3.org/2000/svg" xmlns:xlink="http://www.w3.org/1999/xlink">
    <!-- Generator: sketchtool 57.1 (101010) - https://sketch.com -->
    <title>F52D1C69-B817-4E12-AC95-5D7AAF35D642</title>
    <desc>Created with sketchtool.</desc>
    <g id="Flight-search" stroke="none" stroke-width="1" fill="none" fill-rule="evenodd">
        <g id="search-min-1200" transform="translate(-440.000000, -249.000000)" fill="#FFFFFF">
            <g id="search-form" transform="translate(390.000000, 235.000000)">
                <g id="tabs/flights-search">
                    <g id="tabs/flights-selected">
                        <g>
                            <g id="Group">
                                <g transform="translate(50.005700, 9.000000)">
                                    <path d="M13.5644323,16.3989135 L13.0367255,17.4812879 C12.9592805,17.6401428 12.7542624,17.6874148 12.6120507,17.5791987 L7.89773891,13.9917225 C7.42169515,14.8162545 6.29832751,16.3206225 5.74279629,16.9618404 C6.07590821,17.3828328 6.53535425,17.9189987 6.81532005,18.2416956 C6.9662565,18.4156895 7.00136552,18.6601408 6.90534219,18.8669028 L6.63798614,19.4428052 C6.56337083,19.6036603 6.35840396,19.6545349 6.21423774,19.5479388 L4.5126495,18.2900411 C4.25934416,18.5543205 4.0151395,18.7948123 3.80417503,18.9700266 C3.61580222,19.126494 3.33316009,18.9633105 3.37447839,18.7219412 C3.42073624,18.4516334 3.50697544,18.1199402 3.60919545,17.7684316 L1.66902995,16.9237618 C1.50463187,16.8522083 1.44613764,16.6492244 1.54820405,16.5042182 L1.91327214,15.9847299 C2.04432168,15.7981902 2.27350772,15.7063297 2.49965908,15.7500476 C2.91910571,15.8311566 3.61316198,15.9609656 4.1443776,16.0389929 C4.42192296,15.2372798 5.16306004,13.5122309 5.6391038,12.6876989 L0.175032895,10.3986831 C0.0102091648,10.3296322 -0.0513611283,10.1284453 0.0475582598,9.98198864 L0.720999097,8.98375388 C0.850239973,8.79232215 1.08216355,8.6963621 1.3114214,8.73967472 L7.24821253,9.86051705 C9.19612432,6.1836199 10.2735144,5.58351174 11.0032235,6.00480947 C11.7329402,6.42611159 11.7517873,7.65913262 9.54159587,11.1846025 L13.4805999,15.7655532 C13.6328081,15.9424801 13.6657356,16.191352 13.5644323,16.3989135 Z" id="flights"></path>
                                </g>
                            </g>
                        </g>
                    </g>
                </g>
            </g>
        </g>
    </g>
</svg>