<?xml version="1.0" encoding="UTF-8"?>
<svg width="14px" height="12px" viewBox="0 0 14 12" version="1.1" xmlns="http://www.w3.org/2000/svg" xmlns:xlink="http://www.w3.org/1999/xlink">
    <!-- Generator: sketchtool 57.1 (101010) - https://sketch.com -->
    <title>2624A0F9-0597-4CC9-803D-890243B0B004</title>
    <desc>Created with sketchtool.</desc>
    <g id="Flight-search" stroke="none" stroke-width="1" fill="none" fill-rule="evenodd">
        <g id="search-min-1200" transform="translate(-610.000000, -250.000000)" fill="#FFFFFF">
            <g id="search-form" transform="translate(390.000000, 235.000000)">
                <g id="tabs/flights-search">
                    <g id="tabs/hotels">
                        <g transform="translate(169.504478, 0.000000)">
                            <g id="Group">
                                <g transform="translate(50.756720, 9.000000)">
                                    <path d="M10,6 L10,18 L8,18 L8,16 L5,16 L5,18 L3,18 L3,6 L10,6 Z M13,9 L13,18 L11,18 L11,9 L13,9 Z M2,9 L2,18 L0,18 L0,9 L2,9 Z M6,13 L4,13 L4,15 L6,15 L6,13 Z M9,13 L7,13 L7,15 L9,15 L9,13 Z M6,10 L4,10 L4,12 L6,12 L6,10 Z M9,10 L7,10 L7,12 L9,12 L9,10 Z M6,7 L4,7 L4,9 L6,9 L6,7 Z M9,7 L7,7 L7,9 L9,9 L9,7 Z" id="hotels"></path>
                                </g>
                            </g>
                        </g>
                    </g>
                </g>
            </g>
        </g>
    </g>
</svg>