<svg xmlns="http://www.w3.org/2000/svg">
    <symbol id="icon-header-logo" viewBox="0 0 133 28">
        <g stroke="none" stroke-width="1" fill="none" fill-rule="evenodd">
            <g transform="translate(-410.000000, -13.000000)">
                <g>
                    <g transform="translate(0.000000, -44.000000)" id="logo">
                        <g transform="translate(410.000000, 57.000000)">
                            <path d="M16.6797182,19.5249452 C14.2697962,21.9328339 10.4618769,22.0976405 7.86212993,20.0143709 L10.7401919,17.1413138 C8.7670103,14.5457881 8.9653989,10.8272945 11.334644,8.46078581 C13.7038892,6.09213678 17.4211777,5.89522499 20.0159293,7.86434286 L17.1714079,10.7095755 C19.2523473,13.3115222 19.0903537,17.1142027 16.6797182,19.5249452 M27.9785912,13.2594405 C27.8972376,11.6827193 27.5497007,10.1766295 26.9880754,8.77613005 C26.9709483,8.7297559 26.9516804,8.68837589 26.9324124,8.64271518 C26.9145717,8.60062172 26.8981583,8.55496102 26.8767494,8.50930031 C25.6364639,5.61626663 23.4549029,3.22336034 20.7138576,1.717984 C19.9003216,1.27279213 19.036118,0.901085461 18.1319513,0.622840544 C16.8267255,0.217601794 15.4365781,0 13.9957631,0 C8.22465298,0 3.25566083,3.5080263 1.11620393,8.50573307 C1.09408146,8.55496102 1.0748135,8.60062172 1.05340466,8.64984967 C1.03984572,8.68837589 1.02271865,8.7297559 1.00844609,8.77113591 C-0.335315538,12.1172094 -0.336029166,15.877083 1.00559158,19.2224431 C1.02271865,19.2673903 1.03984572,19.3137645 1.05911368,19.3601386 C1.07909527,19.4029455 1.09408146,19.4464659 1.11406304,19.4871324 C2.53204199,22.8003873 5.19530189,25.4636906 8.50867694,26.8791724 C8.54935374,26.899149 8.5914578,26.9162717 8.62928008,26.9291138 C8.67709316,26.9505173 8.72847438,26.9733476 8.77271932,26.98833 C11.6900308,28.1569587 14.9299022,28.305356 17.9321354,27.4349488 C18.8241705,27.1731132 19.696224,26.8213831 20.5297415,26.3818988 C21.1127756,26.0758294 21.6808236,25.7233858 22.2238945,25.3288488 C23.5762197,26.9597921 25.6186232,28 27.9015193,28 L28,28 L28,13.9957193 C28,13.750293 27.994291,13.5034398 27.9785912,13.2594405" id="Fill-20" fill="#6DB3F1"></path>
                            <text id="AltexTravel" font-family="Museo-700, Museo" font-size="18" font-weight="500" letter-spacing="0.3" fill="#556B7A">
                                <tspan x="38" y="21">A</tspan>
                                <tspan x="50.432" y="21" letter-spacing="0.05">l</tspan>
                                <tspan x="55.72" y="21" letter-spacing="-0.2">t</tspan>
                                <tspan x="62.036" y="21">e</tspan>
                                <tspan x="72.362" y="21" letter-spacing="-0.2">xTravel</tspan>
                            </text>
                        </g>
                    </g>
                </g>
            </g>
        </g>
    </symbol>

    <symbol id="icon-plane" viewBox="0 0 14 15">
        <g id="Flight-search" stroke="none" stroke-width="1" fill="none" fill-rule="evenodd">
            <g id="search-min-1200" transform="translate(-440.000000, -249.000000)" fill="#FFFFFF">
                <g id="search-form" transform="translate(390.000000, 235.000000)">
                    <g id="tabs/flights-search">
                        <g id="tabs/flights-selected">
                            <g>
                                <g id="Group">
                                    <g transform="translate(50.005700, 9.000000)">
                                        <path d="M13.5644323,16.3989135 L13.0367255,17.4812879 C12.9592805,17.6401428 12.7542624,17.6874148 12.6120507,17.5791987 L7.89773891,13.9917225 C7.42169515,14.8162545 6.29832751,16.3206225 5.74279629,16.9618404 C6.07590821,17.3828328 6.53535425,17.9189987 6.81532005,18.2416956 C6.9662565,18.4156895 7.00136552,18.6601408 6.90534219,18.8669028 L6.63798614,19.4428052 C6.56337083,19.6036603 6.35840396,19.6545349 6.21423774,19.5479388 L4.5126495,18.2900411 C4.25934416,18.5543205 4.0151395,18.7948123 3.80417503,18.9700266 C3.61580222,19.126494 3.33316009,18.9633105 3.37447839,18.7219412 C3.42073624,18.4516334 3.50697544,18.1199402 3.60919545,17.7684316 L1.66902995,16.9237618 C1.50463187,16.8522083 1.44613764,16.6492244 1.54820405,16.5042182 L1.91327214,15.9847299 C2.04432168,15.7981902 2.27350772,15.7063297 2.49965908,15.7500476 C2.91910571,15.8311566 3.61316198,15.9609656 4.1443776,16.0389929 C4.42192296,15.2372798 5.16306004,13.5122309 5.6391038,12.6876989 L0.175032895,10.3986831 C0.0102091648,10.3296322 -0.0513611283,10.1284453 0.0475582598,9.98198864 L0.720999097,8.98375388 C0.850239973,8.79232215 1.08216355,8.6963621 1.3114214,8.73967472 L7.24821253,9.86051705 C9.19612432,6.1836199 10.2735144,5.58351174 11.0032235,6.00480947 C11.7329402,6.42611159 11.7517873,7.65913262 9.54159587,11.1846025 L13.4805999,15.7655532 C13.6328081,15.9424801 13.6657356,16.191352 13.5644323,16.3989135 Z" id="flights"></path>
                                    </g>
                                </g>
                            </g>
                        </g>
                    </g>
                </g>
            </g>
        </g>
    </symbol>


    <symbol id="icon-hotel" viewBox="0 0 14 12">
        <g id="Flight-search" stroke="none" stroke-width="1" fill="none" fill-rule="evenodd">
            <g id="search-min-1200" transform="translate(-610.000000, -250.000000)" fill="#FFFFFF">
                <g id="search-form" transform="translate(390.000000, 235.000000)">
                    <g id="tabs/flights-search">
                        <g id="tabs/hotels">
                            <g transform="translate(169.504478, 0.000000)">
                                <g id="Group">
                                    <g transform="translate(50.756720, 9.000000)">
                                        <path d="M10,6 L10,18 L8,18 L8,16 L5,16 L5,18 L3,18 L3,6 L10,6 Z M13,9 L13,18 L11,18 L11,9 L13,9 Z M2,9 L2,18 L0,18 L0,9 L2,9 Z M6,13 L4,13 L4,15 L6,15 L6,13 Z M9,13 L7,13 L7,15 L9,15 L9,13 Z M6,10 L4,10 L4,12 L6,12 L6,10 Z M9,10 L7,10 L7,12 L9,12 L9,10 Z M6,7 L4,7 L4,9 L6,9 L6,7 Z M9,7 L7,7 L7,9 L9,9 L9,7 Z" id="hotels"></path>
                                    </g>
                                </g>
                            </g>
                        </g>
                    </g>
                </g>
            </g>
        </g>
    </symbol>

    <symbol id="icon-arrow-pointers" viewBox="0 0 17 15">
        <g id="Flight-search" stroke="none" stroke-width="1" fill="none" fill-rule="evenodd">
            <g id="search-min-1200" transform="translate(-617.000000, -361.000000)" fill="#363637" fill-rule="nonzero">
                <g id="search-form" transform="translate(390.000000, 235.000000)">
                    <g id="Group-3" transform="translate(20.000000, 108.000000)">
                        <path d="M210.535534,26 L210.535,29 L222,29 L222,30 L210.535,30 L210.535534,33.0710678 L207,29.5355339 L210.535534,26 Z M219.535534,18 L223.071068,21.5355339 L219.535534,25.0710678 L219.535,22 L208,22 L208,21 L219.535,21 L219.535534,18 Z" id="Combined-Shape"></path>
                    </g>
                </g>
            </g>
        </g>
    </symbol>

    <symbol id="icon-dropdown"  class="icon-dropdown" viewBox="0 0 13 7">
        <g id="Page-1" stroke="none" stroke-width="0.5" fill="none" fill-rule="evenodd">
            <g id="style-guide" transform="translate(-82.000000, -667.000000)" fill-rule="nonzero" stroke="#363637" stroke-width=".7">
                <polyline id="arrow/dropdown" transform="translate(86.535534, 667.535534) rotate(-45.000000) translate(-86.535534, -667.535534) " 
                points="89.0355339 670.035534 84.0355339 670.035534 84.0355339 665.035534"></polyline>
            </g>
        </g>
    </symbol>
    <symbol id="icon-footer-logo" viewBox="0 0 100 40">
        <g id="Flight-search" stroke="none" stroke-width="1" fill="none" fill-rule="evenodd">
            <g id="style-guide" transform="translate(-206.000000, -578.000000)">
                <g id="Group-57" transform="translate(206.000000, 578.000000)">
                    <path d="M31.0432,37.8919008 C32.268,37.8919008 33.133,36.588782 33.133,35.4670033 L33.133,35.2489131 L32.7366,35.2489131 C31.5472,35.2489131 29.655,35.4125811 29.655,36.6970238 C29.655,37.3123352 30.1058,37.8919008 31.0432,37.8919008 M32.8086,33.6758926 L33.097,33.6758926 L33.097,33.6027943 C33.097,32.2816016 32.5746,31.7938107 31.4028,31.7938107 C30.9888,31.7938107 30.1778,31.9026549 30.1778,32.4087205 L30.1778,32.8977164 L28.0514,32.8977164 L28.0514,31.920327 C28.0514,30.2013107 30.466,30.020573 31.4212,30.020573 C34.4846,30.020573 35.3854,31.6311467 35.3854,33.6937656 L35.3854,37.1309951 C35.3854,37.3842287 35.5296,37.5288189 35.7818,37.5288189 L36.503,37.5288189 L36.503,39.4649213 L34.4484,39.4649213 C33.6016,39.4649213 33.277,38.9942 33.277,38.4525893 C33.277,38.2166262 33.295,38.0541631 33.295,38.0541631 L33.2594,38.0541631 C33.2594,38.0541631 32.5562,39.6820074 30.4844,39.6820074 C28.844,39.6820074 27.3488,38.6505975 27.3488,36.8056672 C27.3488,33.9106508 31.313,33.6758926 32.8086,33.6758926" id="Fill-1" fill="#ACB2BC"></path>
                    <path d="M38.28822,28.9713102 C38.28822,28.6994004 38.14402,28.5730848 37.89142,28.5730848 L37.17082,28.5730848 L37.17082,26.6197119 L39.35082,26.6197119 C40.19802,26.6197119 40.57662,26.9994619 40.57662,27.8497324 L40.57662,37.1310152 C40.57662,37.3842488 40.72062,37.5288389 40.97302,37.5288389 L41.67582,37.5288389 L41.67582,39.4649414 L39.51342,39.4649414 C38.64882,39.4649414 38.28822,39.1030643 38.28822,38.2349209 L38.28822,28.9713102 Z" id="Fill-3" fill="#ACB2BC"></path>
                    <path d="M43.6226,32.0651984 L42.4334,32.0651984 L42.4334,30.2373377 L43.6768,30.2373377 L43.6768,27.7226738 L45.9108,27.7226738 L45.9108,30.2373377 L48.0014,30.2373377 L48.0014,32.0651984 L45.9108,32.0651984 L45.9108,35.7924115 C45.9108,37.3124156 47.1002,37.5288992 47.7312,37.5288992 C47.9832,37.5288992 48.1454,37.4927516 48.1454,37.4927516 L48.1454,39.5009484 C48.1454,39.5009484 47.8568,39.5549689 47.4428,39.5549689 C46.1632,39.5549689 43.6226,39.1756205 43.6226,36.0815918 L43.6226,32.0651984 Z" id="Fill-5" fill="#ACB2BC"></path>
                    <path d="M55.73216,33.6576381 C55.69656,32.5537324 54.93936,31.7938307 54.00256,31.7938307 C52.83116,31.7938307 52.00256,32.4991094 51.75056,33.6576381 L55.73216,33.6576381 Z M54.00256,30.020593 C56.63356,30.020593 58.07516,31.9562939 58.07516,34.3984619 C58.07516,34.6705725 58.02096,35.2489332 58.02096,35.2489332 L51.67796,35.2489332 C51.85836,36.8769783 53.04736,37.7286545 54.43476,37.7286545 C55.91276,37.7286545 57.01156,36.6970439 57.01156,36.6970439 L57.96696,38.289343 C57.96696,38.289343 56.56136,39.6820275 54.27216,39.6820275 C51.22796,39.6820275 49.33576,37.4752201 49.33576,34.8515111 C49.33576,32.0113184 51.24576,30.020593 54.00256,30.020593 L54.00256,30.020593 Z" id="Fill-7" fill="#ACB2BC"></path>
                    <path d="M61.98646,34.7976311 L60.47346,32.49925 C60.29266,32.2277418 60.14886,32.1921967 59.77086,32.1921967 L59.10386,32.1921967 L59.10386,30.237418 L60.70726,30.237418 C61.46466,30.237418 61.78866,30.4010861 62.20306,31.1059631 L63.10366,32.6259672 C63.23026,32.8609262 63.39266,33.2230041 63.39266,33.2230041 L63.42806,33.2230041 C63.42806,33.2230041 63.59066,32.8609262 63.71646,32.6259672 L64.61766,31.1059631 C65.03226,30.4010861 65.33846,30.237418 66.11346,30.237418 L67.69886,30.237418 L67.69886,32.1921967 L67.05026,32.1921967 C66.67186,32.1921967 66.52786,32.2277418 66.34726,32.49925 L64.81566,34.7976311 L67.82466,39.4648811 L65.28366,39.4648811 L63.68066,36.8961967 C63.55406,36.7142541 63.42806,36.4078033 63.42806,36.4078033 L63.39266,36.4078033 C63.39266,36.4078033 63.24806,36.6969836 63.12186,36.8961967 L61.53646,39.4648811 L58.99546,39.4648811 L61.98646,34.7976311 Z" id="Fill-9" fill="#ACB2BC"></path>
                    <path d="M69.55638,36.5344201 C69.55638,36.5344201 70.72678,37.8919611 72.29538,37.8919611 C72.99758,37.8919611 73.53798,37.6021783 73.53798,36.986666 C73.53798,35.6841496 68.69138,35.7018217 68.69138,32.7166373 C68.69138,30.8713053 70.34858,30.0204324 72.25898,30.0204324 C73.50258,30.0204324 75.48438,30.4367316 75.48438,31.9380594 L75.48438,32.8977766 L73.46618,32.8977766 L73.46618,32.4449283 C73.46618,32.0113586 72.81738,31.7938709 72.31298,31.7938709 C71.50258,31.7938709 70.94378,32.0834529 70.94378,32.6258668 C70.94378,34.073375 75.82658,33.7835922 75.82658,36.8595471 C75.82658,38.5964365 74.29538,39.6820676 72.29538,39.6820676 C69.77258,39.6820676 68.47518,38.035748 68.47518,38.035748 L69.55638,36.5344201 Z" id="Fill-11" fill="#ACB2BC"></path>
                    <path d="M82.06264,37.7287348 C83.55804,37.7287348 84.80164,36.570407 84.80164,34.8515914 C84.80164,33.1502471 83.55804,31.9748496 82.06264,31.9748496 C80.58464,31.9748496 79.34184,33.1502471 79.34184,34.8515914 C79.34184,36.570407 80.58464,37.7287348 82.06264,37.7287348 M82.06264,30.0204725 C84.87324,30.0204725 87.10844,32.0296734 87.10844,34.8515914 C87.10844,37.6915832 84.87324,39.6821078 82.06264,39.6821078 C79.26964,39.6821078 77.03484,37.6915832 77.03484,34.8515914 C77.03484,32.0296734 79.26964,30.0204725 82.06264,30.0204725" id="Fill-13" fill="#ACB2BC"></path>
                    <path d="M89.18118,32.0651984 L88.04678,32.0651984 L88.04678,30.2373377 L89.18118,30.2373377 L89.18118,29.9666328 C89.18118,26.9444975 91.65038,26.5468746 92.92998,26.5468746 C93.39818,26.5468746 93.70398,26.6008951 93.70398,26.6008951 L93.70398,28.5550713 C93.70398,28.5550713 93.50598,28.5191246 93.23618,28.5191246 C92.58718,28.5191246 91.46998,28.6811861 91.46998,30.0204525 L91.46998,30.2373377 L93.43478,30.2373377 L93.43478,32.0651984 L91.46998,32.0651984 L91.46998,39.4650016 L89.18118,39.4650016 L89.18118,32.0651984 Z" id="Fill-15" fill="#ACB2BC"></path>
                    <path d="M95.4351,32.0651984 L94.2461,32.0651984 L94.2461,30.2373377 L95.4897,30.2373377 L95.4897,27.7226738 L97.7235,27.7226738 L97.7235,30.2373377 L99.8141,30.2373377 L99.8141,32.0651984 L97.7235,32.0651984 L97.7235,35.7924115 C97.7235,37.3124156 98.9131,37.5288992 99.5433,37.5288992 C99.7965,37.5288992 99.9579,37.4927516 99.9579,37.4927516 L99.9579,39.5009484 C99.9579,39.5009484 99.6699,39.5549689 99.2559,39.5549689 C97.9761,39.5549689 95.4351,39.1756205 95.4351,36.0815918 L95.4351,32.0651984 Z" id="Fill-17" fill="#ACB2BC"></path>
                    <g id="Group-21" transform="translate(0.000000, 0.125111)">
                        <mask id="mask-2" fill="white">
                            <polygon id="path-1" points="0 0.0757893443 24.99736 0.0757893443 24.99736 25.1820639 0 25.1820639"></polygon>
                        </mask>
                        <g id="Clip-20"></g>
                        <path d="M14.89056,17.5830475 C12.73896,19.741859 9.33976,19.8898631 7.01776,18.0214369 L9.58776,15.4453221 C7.82676,13.1178221 8.00376,9.78421557 10.11916,7.66195328 C12.23396,5.53808443 15.55236,5.36216639 17.86936,7.12797377 L15.32996,9.67858443 C17.18816,12.0119082 17.04316,15.421023 14.89056,17.5830475 M24.97836,11.9649164 C24.90496,10.5509451 24.59536,9.19983033 24.09416,7.94510902 C24.07836,7.90374016 24.06016,7.86618689 24.04336,7.82501885 C24.02816,7.78806803 24.01316,7.74649836 23.99476,7.70533033 C22.88776,5.11134262 20.93856,2.96578525 18.49236,1.61687951 C17.76636,1.21785082 16.99436,0.884088525 16.18716,0.634469672 C15.02156,0.270986066 13.78056,0.0757893443 12.49436,0.0757893443 C7.34316,0.0757893443 2.90616,3.22203115 0.99556,7.70191639 C0.97716,7.74649836 0.95996,7.78806803 0.93916,7.83204754 C0.92756,7.86658852 0.91316,7.90374016 0.90016,7.94069098 C-0.29944,10.9411377 -0.29984,14.3122975 0.89736,17.3115393 C0.91316,17.3521049 0.92756,17.393273 0.94576,17.4352443 C0.96276,17.4738016 0.97716,17.5127607 0.99396,17.5495107 C2.26096,20.5196336 4.63756,22.907982 7.59656,24.1769615 C7.63236,24.1948344 7.67036,24.2100967 7.70376,24.2215434 C7.74596,24.2402197 7.79216,24.2609041 7.83176,24.2753631 C10.43636,25.3228385 13.32816,25.4557811 16.00916,24.6751951 C16.80536,24.4404369 17.58396,24.1255516 18.32776,23.730941 C18.84816,23.4562197 19.35556,23.140732 19.84056,22.7868877 C21.04696,24.2496582 22.87116,25.1820639 24.90976,25.1820639 L24.99736,25.1820639 L24.99736,12.6254123 C24.99736,12.4055148 24.99196,12.1840107 24.97836,11.9649164" id="Fill-19" fill="#ACB2BC" mask="url(#mask-2)"></path>
                    </g>
                </g>
            </g>
        </g>
    </symbol>
    <symbol id="icon-phone"  viewBox="0 0 8 13">
        <g id="Page-1" stroke="none" stroke-width="1" fill="none" fill-rule="evenodd">
            <g id="style-guide" transform="translate(-478.000000, -661.000000)" fill="#7A88A4" fill-rule="nonzero">
                <path d="M479,661 L485,661 C485.552285,661 486,661.447715 486,662 L486,673 C486,673.552285 485.552285,674 485,674 L479,674 C478.447715,674 478,673.552285 478,673 L478,662 C478,661.447715 478.447715,661 479,661 Z M479,663 L479,672 L485,672 L485,663 L479,663 Z" id="phone"></path>
            </g>
        </g>
    </symbol>
    <symbol id="icon-mail"  viewBox="0 0 12 8">
        <g id="Page-1" stroke="none" stroke-width="1" fill="none" fill-rule="evenodd">
            <g id="style-guide" transform="translate(-516.000000, -664.000000)" fill-rule="nonzero" stroke="#7A88A4">
                <g id="email" transform="translate(516.000000, 664.000000)">
                    <rect id="Rectangle" x="0.5" y="0.5" width="11" height="7" rx="1"></rect>
                    <polyline id="Shape" points="11.5 0.5 6 4.5 0.5 0.5"></polyline>
                </g>
            </g>
        </g>
    </symbol>
</svg>