<?xml version="1.0" encoding="UTF-8"?>
<svg width="11px" height="15px" viewBox="0 0 11 15" version="1.1" xmlns="http://www.w3.org/2000/svg" xmlns:xlink="http://www.w3.org/1999/xlink">
    <!-- Generator: sketchtool 53.2 (72643) - https://sketchapp.com -->
    <title>2A6798E5-883C-4450-80C6-AF0A251CA883</title>
    <desc>Created with sketchtool.</desc>
    <g id="Page-1" stroke="none" stroke-width="1" fill="none" fill-rule="evenodd" fill-opacity="0.503660402">
        <g id="search---from" transform="translate(-426.000000, -414.000000)" fill="#6DB3F1" fill-rule="nonzero">
            <g id="Group-3" transform="translate(410.000000, 395.000000)">
                <path d="M26.1327047,25.9074486 C26.7613873,24.085881 26.3583856,21.9741523 24.8914595,20.5233463 C22.8603311,18.4922179 19.5557175,18.4922179 17.5245891,20.5233463 C16.0737831,21.9741523 15.6546613,24.085881 16.2833439,25.9074486 C17.6374295,29.8085047 21.2160843,33.5 21.2160843,33.5 C21.2160843,33.5 24.762499,29.8407449 26.1165846,25.9719288 L26.1327047,25.9074486 Z M22.6884888,26.0096474 C21.8761517,26.8219844 20.5507597,26.8219844 19.7598,26.0096474 C18.9474629,25.1973103 18.9474629,23.8719183 19.7598,23.0809585 C20.572137,22.2686215 21.897529,22.2686215 22.6884888,23.0809585 C23.5008258,23.8932956 23.5008258,25.1973103 22.6884888,26.0096474 Z" id="Shape"></path>
            </g>
        </g>
    </g>
</svg>